<svg xmlns="http://www.w3.org/2000/svg" width="16" height="16" viewBox="0 0 16 16" fill="#BEA69E">
  <path d="M10.58 9.08C10.58 10.5 9.42 11.66 8 11.66C6.58 11.66 5.42 10.5 5.42 9.08C5.42 7.66 6.58 6.5 8 6.5C9.42 6.5 10.58 7.66 10.58 9.08ZM16 5.42V12.74C16 13.72 15.21 14.51 14.23 14.51H1.77C0.79 14.51 0 13.72 0 12.74V5.42C0 4.44 0.79 3.65 1.77 3.65H3.95V3.03C3.95 2.18 4.64 1.49 5.49 1.49H10.51C11.36 1.49 12.05 2.18 12.05 3.03V3.65H14.23C15.21 3.65 16 4.44 16 5.42ZM11.91 9.08C11.91 6.93 10.15 5.17 8 5.17C5.85 5.17 4.09 6.93 4.09 9.08C4.09 11.23 5.85 12.99 8 12.99C10.15 12.99 11.91 11.23 11.91 9.08Z"/>
</svg>
