<svg aria-hidden="true" style="position:absolute;width:0;height:0;overflow:hidden" xmlns="http://www.w3.org/2000/svg">
    <defs>
        <!--heder-->
        <symbol id="icon-logo" viewBox="0 0 233 32">
            <path
                d="M19.471 17.348H6.279v12.649h-6.28V0h21.368v5.24H6.278v6.822H19.47v5.286zM32.201 25.66c3.569 0 5.376-2.259 5.376-6.776s-1.807-6.731-5.376-6.731c-3.569 0-5.376 2.214-5.376 6.731s1.807 6.776 5.376 6.776zm0 4.924c-7.183 0-11.43-4.789-11.43-11.701 0-7.048 4.382-11.701 11.43-11.701 6.957 0 11.294 4.608 11.294 11.701 0 7.048-4.382 11.701-11.294 11.701zM59.716 21.956h5.918c-.632 5.15-4.834 8.629-10.21 8.629-6.054 0-10.21-4.021-10.21-11.972s4.156-11.43 10.391-11.43c5.783 0 9.713 3.298 10.074 8.538h-5.918c-.316-2.304-1.988-3.659-4.201-3.659-2.485 0-4.518 1.581-4.518 6.415s2.033 7.183 4.337 7.183 4.111-1.31 4.337-3.704zM87.384 29.997h-5.557V26.88c-1.536 2.53-3.84 3.704-6.912 3.704-4.427 0-7.545-3.298-7.545-8.177V7.77h5.873v13.734c0 2.801 1.265 4.156 3.749 4.156 2.982 0 4.563-2.123 4.563-5.06V7.77h5.828v22.227zM108.978 14.502h-5.647c-.316-2.168-1.491-2.936-4.156-2.936-2.214 0-3.479.542-3.479 1.852s1.22 1.852 3.614 2.53c2.53.723 4.924 1.22 6.641 1.897 2.349.949 3.659 2.485 3.659 5.376 0 4.608-3.388 7.364-9.713 7.364-6.822 0-10.616-3.208-10.707-7.725h6.053c0 2.078 1.762 3.298 4.608 3.298 2.078 0 3.93-.632 3.93-2.304 0-1.581-1.672-2.078-3.569-2.53-3.75-.904-5.828-1.536-7.409-2.53-2.078-1.31-2.801-3.027-2.801-5.015 0-3.75 2.575-6.596 9.352-6.596 6.415 0 9.306 2.53 9.623 7.319zM117.412 29.997h-6.28v-6.099h6.28v6.099zM139.03 17.348h-13.192v12.649h-6.28V0h21.368v5.24h-15.089v6.822h13.192v5.286zM147.494 29.997h-5.873V7.77h5.512v2.665c1.943-2.982 4.201-3.253 6.596-3.253h.768v6.008a9.912 9.912 0 0 0-1.626-.136c-3.614 0-5.376 1.807-5.376 5.376v11.565zM168.495 21.549l.045-2.44c-.587.587-1.626.904-3.795 1.31-3.343.632-4.427 1.581-4.427 3.479 0 1.672.994 2.485 2.846 2.485 3.027 0 5.286-2.214 5.331-4.834zm5.918 8.448h-5.466c-.181-.542-.316-1.31-.361-1.988-1.4 1.536-3.75 2.575-6.731 2.575-5.06 0-7.409-2.485-7.409-6.099 0-6.415 4.292-7.138 10.21-7.951 2.936-.407 3.75-.994 3.75-2.53 0-1.446-1.446-2.304-3.75-2.304-2.665 0-3.75 1.31-4.021 3.298h-5.466c.09-4.608 2.62-7.816 9.758-7.816 7.048 0 9.487 3.162 9.487 8.764v14.05zM208.808 29.997h-5.737V16.534c0-2.665-1.4-4.563-3.479-4.563-2.168 0-3.75 2.033-3.75 4.744v13.282h-5.873V16.625c0-3.569-.949-4.472-3.524-4.472-2.349 0-3.569 1.446-3.569 4.337v13.508h-5.873V7.771h5.512v3.253c1.491-2.936 3.569-3.84 6.506-3.84 3.027 0 4.472.949 6.189 3.524 1.22-2.44 3.208-3.524 6.008-3.524 4.472 0 7.59 3.253 7.59 7.409v15.405zM216.619 16.715h9.08c-.09-3.298-2.259-4.879-4.563-4.879-2.349 0-4.292 1.807-4.518 4.879zm15.134 3.705h-15.315c.181 3.343 2.078 5.512 4.969 5.512 1.897 0 3.569-.949 3.976-2.485h6.054c-1.355 4.563-5.015 7.138-9.758 7.138-7.409 0-11.113-4.066-11.113-12.107 0-6.867 3.93-11.294 10.752-11.294s10.436 4.427 10.436 13.237z" />
        </symbol>
        <!--heder phone-->
        <symbol id="icon-camera" viewBox="0 0 37 32">
            <path
                d="M24.184 18.468c0 3.252-2.646 5.898-5.898 5.898s-5.897-2.646-5.897-5.898 2.645-5.898 5.897-5.898 5.898 2.647 5.898 5.898zm12.387-8.375v16.752a4.045 4.045 0 0 1-4.044 4.044H4.043a4.045 4.045 0 0 1-4.044-4.044V10.093a4.045 4.045 0 0 1 4.044-4.044h4.974V4.65a3.537 3.537 0 0 1 3.538-3.538h11.459a3.537 3.537 0 0 1 3.538 3.538v1.398h4.974a4.046 4.046 0 0 1 4.044 4.045zm-9.354 8.375c0-4.925-4.006-8.931-8.931-8.931-4.924 0-8.93 4.007-8.93 8.931s4.007 8.931 8.93 8.931c4.925 0 8.931-4.007 8.931-8.931z" />
        </symbol>
        <!--hero-->
        <symbol id="icon-star" viewBox="0 0 32 32">
            <path stroke-linejoin="round" stroke-linecap="round" stroke-width="2.4"
                d="m16 2.667 4.12 8.347 9.213 1.347-6.667 6.493 1.573 9.173-8.24-4.333-8.24 4.333 1.573-9.173-6.667-6.493 9.213-1.347 4.12-8.347z" />
        </symbol>
        <symbol id="icon-arrow" viewBox="0 0 64 32">
            <path d="M44.444 0 64 15.396 44.444 30.792V18.063H0V12.73h44.444V.001z" />
        </symbol>
        <!--Our Courses-->
        <symbol id="icon-vector" viewBox="0 0 34 32">
            <path
                d="m16.127 6.678 11.784-.368-2.408 11.541-3.876-4.619L5.5 26.764l-1.624-1.935 16.127-13.532-3.876-4.619z" />
        </symbol>
        <!--modal menu-->
        <symbol id="icon-x" viewBox="0 0 32 32">
            <path stroke-linejoin="round" stroke-linecap="round" stroke-width="2.4" d="M24 8 8 24M8 8l16 16" />
        </symbol>
        <symbol id="icon-nav" viewBox="0 0 47 32">
           <path fill="none" stroke="#fff" style="stroke: var(--color1, #fff)" stroke-linejoin="miter" stroke-linecap="round" stroke-miterlimit="4" stroke-width="2.9091" d="M8.538 5.333h36.553"></path>
           <path fill="none" stroke="#fff" style="stroke: var(--color1, #fff)" stroke-linejoin="miter" stroke-linecap="round" stroke-miterlimit="4" stroke-width="2.9091" d="M8.538 24.727h36.553"></path>
           <path fill="none" stroke="#fff" style="stroke: var(--color1, #fff)" stroke-linejoin="miter" stroke-linecap="round" stroke-miterlimit="4" stroke-width="2.9091" d="M19.668 15.030h25.423"></path>
        </symbol>

        <!-- Reviews -->
            
        <symbol id="icon-rating" xmlns="http://www.w3.org/2000/svg"  viewBox="0 0 20 20" fill="#BEA69E" stroke="#BEA69E" stroke-width="1.5" stroke-linecap="round" stroke-linejoin="round">
         <path d="M10 2L12.472 6.93691L18 7.73344L14 11.5741L14.944 17L10 14.4369L5.056 17L6 11.5741L2 7.73344L7.528 6.93691L10 2Z"/>
        </symbol>

        <symbol id="icon-rating-0" xmlns="http://www.w3.org/2000/svg"  viewBox="0 0 20 20" fill="none" stroke="#414141" stroke-linecap="round" stroke-linejoin="round">
         <path d="M10 2L12.472 6.93691L15.236 7.33517L18 7.73344L14 11.5741L14.944 17L10 14.4369L5.056 17L6 11.5741L2 7.73344L7.528 6.93691L10 2Z" fill="white" fill-opacity="0.2"/>
        </symbol>
        
        

    </defs>
</svg>